<svg width="340" height="89" viewBox="0 0 340 89" fill="none" xmlns="http://www.w3.org/2000/svg">
<path d="M-6.77109e-05 85.376V-3.05176e-05H25.7279V66.048H59.9039V85.376H-6.77109e-05ZM114.478 88.576C100.313 88.576 89.8166 85.9306 82.9899 80.64C76.1633 75.3493 72.7499 66.7306 72.7499 54.784V-3.05176e-05H99.6299V53.248C99.6299 58.7093 100.654 62.7626 102.702 65.408C104.75 68.0533 108.206 69.376 113.07 69.376C117.251 69.376 120.537 68.0533 122.926 65.408C125.315 62.7626 126.51 58.7093 126.51 53.248V-3.05176e-05H150.83V54.784C150.83 62.72 149.251 69.2053 146.094 74.24C142.937 79.1893 138.627 82.816 133.166 85.12C127.705 87.424 121.475 88.576 114.478 88.576ZM167.5 85.376V-3.05176e-05H193.356L221.644 37.504H208.332L237.388 -3.05176e-05H262.476V85.376H236.876V18.432L240.844 27.776L214.348 62.08L186.956 26.496L191.82 24.064V85.376H167.5ZM279.125 85.376V-3.05176e-05H339.669V19.2H304.853V33.024H334.677V52.224H304.725V66.176H339.669V85.376H279.125Z" fill="white"/>
</svg>
